<svg width="540" height="100" viewBox="0 0 540 100" fill="none" xmlns="http://www.w3.org/2000/svg">
<path d="M130 56.4817C130 73.2073 141.53 87 162.393 87C172.433 87 180.747 84.3841 186.708 80.6585V67.1829C186.708 63.0875 186.93 61.4361 191.832 61V56.561H166.237V61C172.119 61.2378 174.159 62.2683 174.159 67.1829V78.122C171.727 80.1829 168.747 81.1341 163.884 81.1341C150.001 81.1341 143.726 68.5305 143.726 53.5488C143.726 40.7073 148.667 29.2134 161.923 29.2134C171.256 29.2134 176.433 33.8902 179.492 43.4817H185.139L184.826 29.689C180.276 26.3598 173.139 23.5854 163.021 23.5854C144.667 23.5854 130 36.2683 130 56.4817Z" fill="#483E5E"/>
<path d="M221.87 81.689C214.419 81.689 210.497 73.9207 210.497 62.6646C210.497 54.0244 213.007 47.9207 219.438 47.9207C226.811 47.9207 230.733 55.689 230.733 66.9451C230.733 75.6646 228.302 81.689 221.87 81.689ZM219.831 87C232.929 87 243.126 78.122 243.126 64.0122C243.126 51.8049 234.498 42.6098 221.399 42.6098C208.301 42.6098 198.104 51.4878 198.104 65.5976C198.104 77.8841 206.732 87 219.831 87Z" fill="#483E5E"/>
<path d="M264.376 28.8963L264.768 22H261.866L247.67 25.5671V27.9451L252.768 31.2744V77.5671C252.768 81.2134 250.886 81.6098 247.278 82.0854V86.2073H269.945V82.0854C266.337 81.6098 264.376 81.2134 264.376 77.5671V28.8963Z" fill="#483E5E"/>
<path d="M298.106 47.7622C303.283 47.7622 306.891 50.7744 306.891 56.561V75.7439C304.616 77.8049 301.793 78.9939 298.342 78.9939C290.498 78.9939 286.733 72.2561 286.733 63.2988C286.733 53.7073 291.047 47.7622 298.106 47.7622ZM324.225 84.3049V80.0244L322.264 79.9451C319.284 79.7866 318.499 78.6768 318.499 75.9817V28.8963L318.891 22H315.989L301.793 25.5671V27.9451L306.891 31.2744V45.3049C304.459 43.6402 301.165 42.6098 297.087 42.6098C284.772 42.6098 274.654 51.8841 274.654 66.7866C274.654 78.7561 281.4 87 292.93 87C299.126 87 303.91 83.9085 306.891 79.4695L306.499 87H308.773L324.225 84.3049Z" fill="#483E5E"/>
<path d="M376.722 43.4024H347.466V39.2012C347.466 30.8781 349.584 26.5976 355.309 26.5976C359.074 26.5976 360.721 28.8963 360.721 32.8598V36.0305H369.428C371.467 35 372.408 32.8598 372.408 30.6402C372.408 25.5671 367.781 22 357.506 22C344.093 22 335.858 29.2134 335.858 41.1037V42.1341L329.818 44.9878V48.5549H335.858V77.5671C335.858 81.2134 333.975 81.6098 330.367 82.0854V86.2073H353.662V82.0854C349.192 81.5305 347.466 81.2134 347.466 77.4085V48.5549H364.643V77.5671C364.643 81.2134 362.761 81.6098 359.153 82.0854V86.2073H381.82V82.0854C378.212 81.6098 376.33 81.2134 376.33 77.5671V51.0915L376.722 43.4024Z" fill="#483E5E"/>
<path d="M421.737 77.5671C421.737 81.2134 419.855 81.6098 416.247 82.0854V86.2073H438.915V82.0854C435.307 81.6098 433.346 81.2134 433.346 77.5671V55.6098C433.346 46.5732 427.934 42.6098 420.169 42.6098C413.659 42.6098 408.011 46.5732 404.56 50.3781L404.952 42.4512H402.05L387.854 46.5732V48.9512L392.952 52.6768V77.5671C392.952 81.2134 391.07 81.6098 387.462 82.0854V86.2073H410.129V82.0854C406.521 81.6098 404.56 81.2134 404.56 77.5671V53.9451C407.306 52.2012 411.384 50.6951 415.071 50.6951C419.541 50.6951 421.737 52.439 421.737 57.1159V77.5671Z" fill="#483E5E"/>
<path d="M453.331 61.7134C453.331 52.7561 457.723 47.7622 463.92 47.7622C469.018 47.7622 470.586 51.0122 470.586 55.8476V59.1768H478.116C480.077 58.3841 481.41 56.4024 481.41 53.5488C481.41 46.8902 474.822 42.6098 465.567 42.6098C452.39 42.6098 442.507 51.8841 442.507 66.1524C442.507 77.8841 450.037 87 463.057 87C473.724 87 479.763 81.2927 482.273 73.5244L479.293 72.0183C476.626 75.3476 472.783 77.9634 467.135 77.9634C457.959 77.9634 453.331 71.7012 453.331 61.7134Z" fill="#483E5E"/>
<path d="M491.116 31.2744V77.5671C491.116 81.2134 489.233 81.6098 485.625 82.0854V86.2073H508.215V82.0854C504.607 81.6098 502.724 81.2134 502.724 77.5671V53.9451C505.391 52.2012 509.548 50.6951 513.156 50.6951C517.627 50.6951 519.901 52.439 519.901 57.1159V77.5671C519.901 81.2134 518.019 81.6098 514.411 82.0854V86.2073H537V82.0854C533.392 81.6098 531.51 81.2134 531.51 77.5671V55.6098C531.51 46.5732 526.019 42.6098 518.254 42.6098C511.823 42.6098 506.175 46.5732 502.724 50.3781V28.8963L503.116 22H500.214L486.018 25.5671V27.9451L491.116 31.2744Z" fill="#483E5E"/>
<path d="M75.2632 23.5016C73.4822 25.4912 69.3261 25.4719 67.5451 23.6813C65.764 21.8907 65.1702 18.4248 67.5451 16.2363C69.9199 14.0477 73.4822 14.8458 75.2632 16.4375C77.0443 18.0291 77.0443 21.512 75.2632 23.5016Z" fill="#483E5E"/>
<path d="M56.5647 9.28517C54.6203 11.6684 53.8654 13.0566 52.3981 16.8555C50.4966 21.7783 48.787 27.214 48.0925 30.5786C47.3981 33.9431 48.7815 36.833 51.9348 38.8032C55.2706 40.8873 58.8663 42.5098 63.7274 44.3323C68.5884 46.1547 72.0762 48.7528 73.1873 51.4164C74.2984 54.0801 74.0458 59.2094 71.5459 64.1161C69.0459 69.0228 65.5619 73.5824 59.4509 78.0685C53.3399 82.5546 49.1656 83.6212 43.1228 85.0231C37.0799 86.425 39.0644 89.8793 41.1477 90.5802C43.231 91.2812 47.814 91.9821 53.9253 91.7017C60.0365 91.4214 66.1397 89.8793 73.3618 86.2343C80.5839 82.5893 87.6671 76.2808 91.4246 67.8693C95.1822 59.4579 96.6805 47.5905 92.3266 40.1115C89.7966 35.7656 88.5004 34.7192 87.6671 31.9805C86.8338 29.2417 87.3673 27.1547 88.9195 25.2513C89.8145 24.1538 91.8148 23.049 93.6473 21.7277C95.0917 20.6863 96.8336 19.6437 98.0836 18.8025C99.3336 17.9614 99.7583 17.522 98.925 16.9612L98.8952 16.9411C98.0522 16.3738 96.3906 15.2553 93.5004 14.1762C90.5757 13.0842 90.0249 12.934 88.9195 12.8447C87.8141 12.7555 86.4253 13.7368 84.2031 15.4191C81.9809 17.1014 81.0086 17.4299 80.8698 19.3445C80.7309 21.259 80.1754 23.6904 78.6476 25.7933C77.1199 27.8961 75.0719 28.9638 72.3298 29.2417C69.5877 29.5196 65.8796 28.6686 64.0564 26.513C62.2332 24.3574 61.4985 23.1281 61.4985 20.0713C61.4985 17.0145 62.6756 14.8584 64.2406 13.3163C65.8055 11.7742 65.7311 11.2134 65.7311 10.5124C65.7311 9.8115 65.3675 7.42718 65.0632 6.31561C64.7589 5.20404 63.6671 5.02906 61.8848 5.61415C60.0184 6.22681 58.5091 6.90193 56.5647 9.28517Z" fill="#483E5E"/>
<path d="M29.0298 67.7948C28.1298 68.0324 27.4987 69.5764 25.732 72.6644C23.9653 75.7525 22.3078 78.0091 19.1451 81.4534C15.9825 84.8978 13.9958 86.323 8.9648 89.4111L8.83498 89.4908C3.90843 92.5146 2.45949 93.404 2.11764 94.3186C1.7728 95.2412 1.97564 96.4567 5.674 97.0268C9.37237 97.597 12.4556 97.725 17.7981 94.0431C23.1407 90.3612 27.3384 86.7981 32.8741 84.1852C38.4098 81.5722 40.1429 81.7364 46.3435 79.9094C52.5441 78.0825 58.1966 74.4973 62.0973 70.1408C65.9979 65.7842 67.9481 61.3931 68.7379 58.898C69.5278 56.4029 69.64 53.0781 67.5302 51.4151C65.5144 49.8262 64.4252 49.3485 59.9759 47.6855C55.2441 45.9169 53.6732 45.4737 50.1872 42.702C46.9021 40.09 47.097 39.4658 45.0327 39.1886C42.9684 38.9114 41.4038 41.9993 40.7072 43.5452C40.1831 44.7085 40.0935 46.7621 41.4813 48.6951C42.8691 50.628 44.1595 52.7555 47.9607 54.9153C51.762 57.0751 53.533 57.4207 56.1248 57.8527C58.7166 58.2846 59.7286 58.898 59.0321 60.1283C58.3355 61.3586 56.9424 61.9552 54.5741 61.9552C52.2058 61.9552 48.8624 60.8655 45.519 58.898C43.1612 57.5105 41.479 55.9468 40.25 54.4009C39.0554 52.8982 38.339 52.6799 37.2314 52.6799C36.1238 52.6799 35.2127 53.3826 33.888 55.3501C32.5632 57.3176 31.588 59.4489 31.4487 60.6034C31.3094 61.7578 31.1844 63.0454 33.274 64.5913C35.3637 66.1372 37.1692 66.9774 39.5375 67.399C41.9058 67.8206 43.708 68.5604 41.9732 70.1408C40.2385 71.7212 38.1356 71.3711 36.4639 70.9495C34.7922 70.5279 32.3665 69.2201 31.4487 68.6262C30.5308 68.0324 29.9298 67.5573 29.0298 67.7948Z" fill="#483E5E"/>
<path d="M81.534 12.3007C82.7908 11.5186 84.1798 10.4918 84.1798 9.77366C84.1798 9.05548 83.4724 8.19365 80.5012 6.32638C77.5299 4.4591 73.4268 2.33835 70.7385 2.01718C68.0502 1.69602 69.2147 5.96789 69.5316 7.65728C69.8484 9.34668 69.9429 10.6619 71.0601 10.7985C72.1773 10.935 73.0152 11.0716 73.9928 11.3447C74.9703 11.6179 76.2272 12.2068 77.6237 13.0263C79.0202 13.8457 80.2771 13.0829 81.534 12.3007Z" fill="#483E5E"/>
</svg>
